<svg width="132" height="28" viewBox="0 0 132 28" fill="none" xmlns="http://www.w3.org/2000/svg">
<path d="M2 14.1368L13.5946 2.30503C14.2987 1.58651 15.4539 1.58089 16.1649 2.29251L28 14.1368" stroke="currentColor" stroke-width="1.62726" stroke-linecap="round"/>
<path d="M22.1601 7.62701V1.11139C22.1601 1.07144 22.1277 1.03906 22.0878 1.03906H19.1768C19.1369 1.03906 19.1045 1.07144 19.1045 1.11139V4.5383" stroke="currentColor" stroke-width="1.62726" stroke-linecap="round"/>
<mask id="path-3-inside-1_100_70709" fill="white">
<path fill-rule="evenodd" clip-rule="evenodd" d="M12.9041 8.81958C12.2654 8.81958 11.7476 9.33737 11.7476 9.9761V12.3208H9.6658C9.02707 12.3208 8.50928 12.8386 8.50928 13.4773V18.2268C8.50928 18.8655 9.02707 19.3833 9.6658 19.3833H11.7476V21.6991C11.7476 22.3378 12.2654 22.8556 12.9041 22.8556H17.1232C17.7619 22.8556 18.2797 22.3378 18.2797 21.6991V19.3833H20.3347C20.9734 19.3833 21.4912 18.8655 21.4912 18.2268V13.4773C21.4912 12.8386 20.9734 12.3208 20.3347 12.3208H18.2797V9.9761C18.2797 9.33737 17.7619 8.81958 17.1232 8.81958H12.9041Z"/>
</mask>
<path d="M11.7476 12.3208V13.6219H13.0486V12.3208H11.7476ZM11.7476 19.3833H13.0486V18.0823H11.7476V19.3833ZM18.2797 19.3833V18.0823H16.9786V19.3833H18.2797ZM18.2797 12.3208H16.9786V13.6219H18.2797V12.3208ZM13.0486 9.9761C13.0486 10.0559 12.9839 10.1207 12.9041 10.1207V7.5185C11.5468 7.5185 10.4465 8.6188 10.4465 9.9761H13.0486ZM13.0486 12.3208V9.9761H10.4465V12.3208H13.0486ZM9.6658 13.6219H11.7476V11.0197H9.6658V13.6219ZM9.81036 13.4773C9.81036 13.5571 9.74564 13.6219 9.6658 13.6219V11.0197C8.3085 11.0197 7.20819 12.12 7.20819 13.4773H9.81036ZM9.81036 18.2268V13.4773H7.20819V18.2268H9.81036ZM9.6658 18.0823C9.74564 18.0823 9.81036 18.147 9.81036 18.2268H7.20819C7.20819 19.5841 8.3085 20.6844 9.6658 20.6844V18.0823ZM11.7476 18.0823H9.6658V20.6844H11.7476V18.0823ZM13.0486 21.6991V19.3833H10.4465V21.6991H13.0486ZM12.9041 21.5545C12.9839 21.5545 13.0486 21.6193 13.0486 21.6991H10.4465C10.4465 23.0564 11.5468 24.1567 12.9041 24.1567V21.5545ZM17.1232 21.5545H12.9041V24.1567H17.1232V21.5545ZM16.9786 21.6991C16.9786 21.6193 17.0434 21.5545 17.1232 21.5545V24.1567C18.4805 24.1567 19.5808 23.0564 19.5808 21.6991H16.9786ZM16.9786 19.3833V21.6991H19.5808V19.3833H16.9786ZM20.3347 18.0823H18.2797V20.6844H20.3347V18.0823ZM20.1901 18.2268C20.1901 18.147 20.2548 18.0823 20.3347 18.0823V20.6844C21.692 20.6844 22.7923 19.5841 22.7923 18.2268H20.1901ZM20.1901 13.4773V18.2268H22.7923V13.4773H20.1901ZM20.3347 13.6219C20.2548 13.6219 20.1901 13.5571 20.1901 13.4773H22.7923C22.7923 12.12 21.692 11.0197 20.3347 11.0197V13.6219ZM18.2797 13.6219H20.3347V11.0197H18.2797V13.6219ZM16.9786 9.9761V12.3208H19.5808V9.9761H16.9786ZM17.1232 10.1207C17.0434 10.1207 16.9786 10.0559 16.9786 9.9761H19.5808C19.5808 8.6188 18.4805 7.5185 17.1232 7.5185V10.1207ZM12.9041 10.1207H17.1232V7.5185H12.9041V10.1207Z" fill="currentColor" mask="url(#path-3-inside-1_100_70709)"/>
<path fill-rule="evenodd" clip-rule="evenodd" d="M5.76049 12.4524H24.2028V12.4524H5.76069V17.5552H5.76056V23.7455C5.76056 24.6442 6.48911 25.3728 7.38782 25.3728H22.5756C23.4743 25.3728 24.2028 24.6442 24.2028 23.7455V17.5552H24.203V13.9505L25.8301 15.3767V23.7455C25.8301 25.543 24.373 27 22.5756 27H7.38782C5.5904 27 4.1333 25.543 4.1333 23.7455V15.203L5.76049 13.7768V12.4524ZM24.2028 17.5552V16.1143L24.2028 16.1142V17.5552H5.76069V17.5552H24.2028ZM24.203 13.9505L24.2028 13.9504V12.4524H24.203V13.9505Z" fill="currentColor"/>
<path d="M49.4911 7.6049V7.56795H51.8927V20.5H49.4911V11.9648L45.907 17.969H45.3158L41.7318 11.9648V20.5H39.3117V7.56795H41.7318V7.6049L41.7872 7.56795L45.6114 14.0155L49.4356 7.56795L49.4911 7.6049ZM56.9587 15.0685V18.2092H62.3717V20.5H54.5386V7.56795H62.2794V9.85877H56.9587V12.7962H61.8175V15.0685H56.9587ZM69.489 7.56795C70.696 7.56795 71.8044 7.85738 72.8144 8.43624C73.8366 9.00279 74.6433 9.78487 75.2345 10.7825C75.8257 11.7678 76.1213 12.8639 76.1213 14.0709C76.1213 15.2779 75.8257 16.3741 75.2345 17.3594C74.6433 18.3323 73.8366 19.1021 72.8144 19.6687C71.8044 20.2229 70.696 20.5 69.489 20.5H64.3531V7.56795H69.489ZM69.489 18.2092C70.2649 18.2092 70.9731 18.0306 71.6135 17.6734C72.254 17.3039 72.7589 16.799 73.1284 16.1585C73.5102 15.5181 73.7011 14.8161 73.7011 14.0524C73.7011 13.2888 73.5102 12.5868 73.1284 11.9464C72.7589 11.2936 72.254 10.7825 71.6135 10.413C70.9731 10.0435 70.2649 9.85877 69.489 9.85877H66.7732V18.2092H69.489ZM86.5241 12.7408V7.56795H88.9257V20.5H86.5241V15.0131H80.5568V20.5H78.1367V7.56795H80.5568V12.7408H86.5241ZM97.132 20.7402C95.925 20.7402 94.8103 20.4446 93.7881 19.8534C92.7659 19.2499 91.953 18.437 91.3495 17.4148C90.7583 16.3925 90.4627 15.2779 90.4627 14.0709C90.4627 12.8639 90.7583 11.7493 91.3495 10.7271C91.953 9.70481 92.7659 8.8981 93.7881 8.30692C94.8103 7.70342 95.925 7.40168 97.132 7.40168C98.339 7.40168 99.4536 7.70342 100.476 8.30692C101.498 8.8981 102.305 9.70481 102.896 10.7271C103.499 11.7493 103.801 12.8639 103.801 14.0709C103.801 15.2779 103.499 16.3925 102.896 17.4148C102.305 18.437 101.498 19.2499 100.476 19.8534C99.4536 20.4446 98.339 20.7402 97.132 20.7402ZM97.132 18.32C97.8956 18.32 98.6038 18.1291 99.2565 17.7473C99.9093 17.3655 100.427 16.8482 100.808 16.1955C101.19 15.5427 101.381 14.8345 101.381 14.0709C101.381 13.3073 101.19 12.5991 100.808 11.9464C100.427 11.2936 99.9093 10.7763 99.2565 10.3945C98.6038 10.0127 97.8956 9.82182 97.132 9.82182C96.3684 9.82182 95.654 10.0127 94.9889 10.3945C94.3362 10.7763 93.8189 11.2936 93.4371 11.9464C93.0553 12.5991 92.8644 13.3073 92.8644 14.0709C92.8644 14.8345 93.0553 15.5427 93.4371 16.1955C93.8189 16.8482 94.3362 17.3655 94.9889 17.7473C95.654 18.1291 96.3684 18.32 97.132 18.32ZM115.414 7.6049V7.56795H117.816V20.5H115.414V11.9648L111.83 17.969H111.239L107.655 11.9648V20.5H105.235V7.56795H107.655V7.6049L107.71 7.56795L111.535 14.0155L115.359 7.56795L115.414 7.6049ZM122.882 15.0685V18.2092H128.295V20.5H120.462V7.56795H128.203V9.85877H122.882V12.7962H127.741V15.0685H122.882Z" fill="currentColor"/>
</svg>
